<svg width="20" height="20" viewBox="0 0 20 20" fill="none" xmlns="http://www.w3.org/2000/svg">
<g id="Icon feather-eye-off">
<path id="Trazado 807" d="M14.8598 14.8589C13.4613 15.9249 11.7583 16.5154 10 16.5441C4.27296 16.5441 1 9.99821 1 9.99821C2.0178 8.10163 3.42941 6.44463 5.14015 5.13837M8.28172 3.64981C8.84492 3.51786 9.42155 3.45186 10 3.45314C15.727 3.45314 19 9.99906 19 9.99906C18.5032 10.9279 17.9109 11.8024 17.2326 12.6083M11.7344 11.7326C11.5128 11.9861 11.2415 12.1914 10.9373 12.3357C10.6331 12.4801 10.3024 12.5604 9.96593 12.5716C9.62941 12.5829 9.29416 12.525 8.98096 12.4013C8.66777 12.2777 8.3833 12.0911 8.14521 11.853C7.90713 11.6149 7.72048 11.3304 7.59686 11.0173C7.47324 10.7041 7.41528 10.3688 7.42657 10.0323C7.43786 9.69577 7.51816 9.36515 7.66249 9.06095C7.80682 8.75674 8.0121 8.48542 8.26561 8.26383" stroke="#4D4D4D" stroke-width="2" stroke-linecap="round" stroke-linejoin="round"/>
<path id="Trazado 808" d="M1 1L19 19" stroke="#4D4D4D" stroke-width="2" stroke-linecap="round" stroke-linejoin="round"/>
</g>
</svg>
