<svg width="20" height="20" viewBox="0 0 20 20" fill="none" xmlns="http://www.w3.org/2000/svg">
<g id="Icon feather-search">
<path id="Trazado 770" d="M1.00391 8.76269C1.00391 10.2131 1.44377 11.631 2.26788 12.837C3.09199 14.0429 4.26333 14.9829 5.63378 15.5379C7.00423 16.093 8.51223 16.2382 9.96708 15.9553C11.4219 15.6723 12.7583 14.9738 13.8072 13.9482C14.8561 12.9226 15.5704 11.6159 15.8598 10.1934C16.1492 8.77082 16.0007 7.2963 15.433 5.95628C14.8653 4.61626 13.904 3.47093 12.6707 2.66511C11.4373 1.8593 9.98727 1.4292 8.50391 1.4292C6.51478 1.4292 4.60713 2.20183 3.2006 3.57713C1.79408 4.95242 1.00391 6.81772 1.00391 8.76269V8.76269Z" stroke="#171717" stroke-width="2" stroke-linecap="round" stroke-linejoin="round"/>
<path id="Trazado 771" d="M18.0039 18.0518L14.0039 14.1406" stroke="#171717" stroke-width="2" stroke-linecap="round" stroke-linejoin="round"/>
</g>
</svg>
